<?xml version="1.0" encoding="UTF-8" standalone="no"?>
<!DOCTYPE svg PUBLIC "-//W3C//DTD SVG 1.1//EN" "http://www.w3.org/Graphics/SVG/1.1/DTD/svg11.dtd">
<svg width="100%" height="100%" viewBox="0 0 100 100" version="1.1" xmlns="http://www.w3.org/2000/svg" xmlns:xlink="http://www.w3.org/1999/xlink" xml:space="preserve" xmlns:serif="http://www.serif.com/" style="fill-rule:evenodd;clip-rule:evenodd;stroke-linejoin:round;stroke-miterlimit:2;">
    <g transform="matrix(2.38122,0,0,2.38122,-0.00341319,5.68563e-06)">
        <path d="M1.752,8.314L6.54,8.314C7.485,11.79 11.069,13.843 14.546,12.898C16.778,12.291 18.523,10.547 19.13,8.314L40.248,8.314C41.215,8.314 41.998,7.53 41.998,6.564C41.998,5.598 41.215,4.814 40.248,4.814L19.13,4.814C18.185,1.337 14.6,-0.715 11.124,0.23C8.891,0.837 7.147,2.581 6.54,4.814L1.752,4.814C0.786,4.814 0.002,5.598 0.002,6.564C0.002,7.53 0.786,8.314 1.752,8.314Z" style="fill:rgb(216,216,216);fill-rule:nonzero;"/>
        <path d="M40.248,19.251L35.461,19.251C34.518,15.775 30.935,13.721 27.459,14.664C25.225,15.271 23.479,17.016 22.873,19.251L1.752,19.251C0.786,19.251 0.002,20.034 0.002,21.001C0.002,21.967 0.786,22.751 1.752,22.751L22.873,22.751C23.816,26.227 27.398,28.28 30.874,27.337C33.109,26.731 34.855,24.985 35.461,22.751L40.248,22.751C41.215,22.751 41.998,21.967 41.998,21.001C41.998,20.034 41.215,19.251 40.248,19.251Z" style="fill:rgb(216,216,216);fill-rule:nonzero;"/>
        <path d="M40.248,33.686L19.13,33.686C18.185,30.21 14.6,28.157 11.124,29.102C8.891,29.709 7.147,31.453 6.54,33.686L1.752,33.686C0.786,33.686 0.002,34.47 0.002,35.436C0.002,36.403 0.786,37.186 1.752,37.186L6.54,37.186C7.485,40.663 11.069,42.715 14.546,41.77C16.778,41.163 18.523,39.419 19.13,37.186L40.248,37.186C41.215,37.186 41.998,36.403 41.998,35.436C41.998,34.47 41.215,33.686 40.248,33.686Z" style="fill:rgb(216,216,216);fill-rule:nonzero;"/>
    </g>
</svg>
