<?xml version="1.0" encoding="UTF-8" standalone="no"?>
<!DOCTYPE svg PUBLIC "-//W3C//DTD SVG 1.1//EN" "http://www.w3.org/Graphics/SVG/1.1/DTD/svg11.dtd">
<svg width="100%" height="100%" viewBox="0 0 100 100" version="1.1" xmlns="http://www.w3.org/2000/svg" xmlns:xlink="http://www.w3.org/1999/xlink" xml:space="preserve" xmlns:serif="http://www.serif.com/" style="fill-rule:evenodd;clip-rule:evenodd;stroke-linejoin:round;stroke-miterlimit:2;">
    <g transform="matrix(2.34972,0,0,2.34972,0.751497,0.238118)">
        <path d="M40.25,38.5L8.75,38.5C7.358,38.5 6.022,37.947 5.038,36.962C4.053,35.978 3.5,34.642 3.5,33.25L3.5,1.75C3.5,1.286 3.316,0.841 2.987,0.513C2.659,0.184 2.214,0 1.75,0C1.286,0 0.841,0.184 0.513,0.513C0.184,0.841 0,1.286 0,1.75L0,33.25C0.003,35.57 0.926,37.794 2.566,39.434C4.206,41.075 6.43,41.997 8.75,42L40.25,42C40.714,42 41.159,41.816 41.487,41.487C41.816,41.159 42,40.714 42,40.25C42,39.786 41.816,39.341 41.487,39.013C41.159,38.684 40.714,38.5 40.25,38.5Z" style="fill:rgb(216,216,216);fill-rule:nonzero;"/>
        <path d="M10.5,35C10.964,35 11.41,34.816 11.738,34.487C12.066,34.159 12.25,33.714 12.25,33.25L12.25,21C12.25,20.536 12.066,20.091 11.738,19.762C11.41,19.434 10.964,19.25 10.5,19.25C10.036,19.25 9.591,19.434 9.263,19.762C8.935,20.091 8.75,20.536 8.75,21L8.75,33.25C8.75,33.714 8.935,34.159 9.263,34.487C9.591,34.816 10.036,35 10.5,35Z" style="fill:rgb(216,216,216);fill-rule:nonzero;"/>
        <path d="M17.5,17.5L17.5,33.25C17.5,33.714 17.684,34.159 18.012,34.487C18.341,34.816 18.786,35 19.25,35C19.714,35 20.159,34.816 20.487,34.487C20.815,34.159 21,33.714 21,33.25L21,17.5C21,17.036 20.815,16.591 20.487,16.263C20.159,15.934 19.714,15.75 19.25,15.75C18.786,15.75 18.341,15.934 18.012,16.263C17.684,16.591 17.5,17.036 17.5,17.5Z" style="fill:rgb(216,216,216);fill-rule:nonzero;"/>
        <path d="M26.25,22.75L26.25,33.25C26.25,33.714 26.434,34.159 26.763,34.487C27.091,34.816 27.536,35 28,35C28.464,35 28.909,34.816 29.238,34.487C29.566,34.159 29.75,33.714 29.75,33.25L29.75,22.75C29.75,22.286 29.566,21.841 29.238,21.513C28.909,21.184 28.464,21 28,21C27.536,21 27.091,21.184 26.763,21.513C26.434,21.841 26.25,22.286 26.25,22.75Z" style="fill:rgb(216,216,216);fill-rule:nonzero;"/>
        <path d="M35,15.75L35,33.25C35,33.714 35.185,34.159 35.513,34.487C35.841,34.815 36.286,35 36.75,35C37.214,35 37.66,34.815 37.988,34.487C38.316,34.159 38.5,33.714 38.5,33.25L38.5,15.75C38.5,15.286 38.316,14.841 37.988,14.512C37.66,14.184 37.214,14 36.75,14C36.286,14 35.841,14.184 35.513,14.512C35.185,14.841 35,15.286 35,15.75Z" style="fill:rgb(216,216,216);fill-rule:nonzero;"/>
        <path d="M10.5,15.75C10.964,15.75 11.409,15.565 11.737,15.237L18.013,8.962C18.346,8.644 18.789,8.467 19.25,8.467C19.71,8.467 20.153,8.644 20.487,8.962L24.288,12.763C25.273,13.747 26.608,14.3 28,14.3C29.392,14.3 30.727,13.747 31.712,12.763L41.487,2.987C41.806,2.657 41.982,2.215 41.978,1.756C41.974,1.297 41.79,0.858 41.466,0.534C41.141,0.209 40.702,0.025 40.244,0.021C39.785,0.017 39.343,0.194 39.013,0.513L29.237,10.286C28.909,10.614 28.464,10.799 28,10.799C27.536,10.799 27.091,10.614 26.763,10.286L22.962,6.487C21.977,5.503 20.642,4.95 19.25,4.95C17.858,4.95 16.523,5.503 15.538,6.487L9.263,12.763C9.018,13.007 8.851,13.319 8.784,13.659C8.716,13.998 8.751,14.35 8.883,14.669C9.016,14.989 9.24,15.262 9.528,15.455C9.815,15.647 10.154,15.75 10.5,15.75Z" style="fill:rgb(216,216,216);fill-rule:nonzero;"/>
    </g>
</svg>
