<?xml version="1.0" encoding="UTF-8" standalone="no"?>
<!DOCTYPE svg PUBLIC "-//W3C//DTD SVG 1.1//EN" "http://www.w3.org/Graphics/SVG/1.1/DTD/svg11.dtd">
<svg width="100%" height="100%" viewBox="0 0 100 100" version="1.1" xmlns="http://www.w3.org/2000/svg" xmlns:xlink="http://www.w3.org/1999/xlink" xml:space="preserve" xmlns:serif="http://www.serif.com/" style="fill-rule:evenodd;clip-rule:evenodd;stroke-linejoin:round;stroke-miterlimit:2;">
    <g transform="matrix(4.03977,0,0,4.03977,1.7367,0.452755)">
        <path d="M22.922,1.7C22.576,1.413 22.171,1.208 21.736,1.098C21.301,0.988 20.846,0.976 20.406,1.064L16.284,2.064C15.362,2.232 14.529,2.718 13.929,3.437C13.329,4.156 13,5.063 13,6L13,20.8L12,20.981L11,20.8L11,6C11.004,5.073 10.683,4.173 10.094,3.457C9.505,2.74 8.684,2.252 7.773,2.077L3.536,1.049C3.104,0.971 2.66,0.988 2.235,1.1C1.81,1.212 1.415,1.416 1.078,1.697C0.741,1.979 0.469,2.331 0.283,2.729C0.097,3.127 0,3.561 0,4L0,20.834L12,23.017L24,20.834L24,4C24,3.561 23.904,3.127 23.717,2.73C23.531,2.332 23.259,1.981 22.922,1.7Z" style="fill:rgb(216,216,216);fill-rule:nonzero;"/>
    </g>
</svg>
