<?xml version="1.0" encoding="UTF-8" standalone="no"?>
<!DOCTYPE svg PUBLIC "-//W3C//DTD SVG 1.1//EN" "http://www.w3.org/Graphics/SVG/1.1/DTD/svg11.dtd">
<svg width="100%" height="100%" viewBox="0 0 100 100" version="1.1" xmlns="http://www.w3.org/2000/svg" xmlns:xlink="http://www.w3.org/1999/xlink" xml:space="preserve" xmlns:serif="http://www.serif.com/" style="fill-rule:evenodd;clip-rule:evenodd;stroke-linejoin:round;stroke-miterlimit:2;">
    <g transform="matrix(2.34423,0,0,2.34423,0.462689,0.995995)">
        <path d="M21,0C16.847,0 12.787,1.232 9.333,3.539C5.88,5.847 3.188,9.126 1.599,12.964C0.009,16.801 -0.407,21.023 0.404,25.097C1.214,29.171 3.214,32.912 6.151,35.849C9.088,38.786 12.83,40.786 16.903,41.597C20.977,42.407 25.199,41.991 29.036,40.402C32.874,38.812 36.153,36.12 38.461,32.667C40.768,29.214 42,25.153 42,21C41.994,15.432 39.78,10.094 35.843,6.157C31.906,2.22 26.568,0.006 21,0ZM21,35C20.654,35 20.316,34.897 20.028,34.705C19.74,34.513 19.516,34.24 19.383,33.92C19.251,33.6 19.216,33.248 19.284,32.909C19.351,32.569 19.518,32.257 19.763,32.013C20.007,31.768 20.319,31.601 20.659,31.534C20.998,31.466 21.35,31.501 21.67,31.633C21.99,31.766 22.263,31.99 22.455,32.278C22.647,32.566 22.75,32.904 22.75,33.25C22.75,33.714 22.566,34.159 22.237,34.487C21.909,34.816 21.464,35 21,35ZM24.378,21.886C23.861,22.208 23.439,22.662 23.153,23.2C22.867,23.737 22.728,24.341 22.75,24.95L22.75,26.25C22.75,26.714 22.566,27.159 22.237,27.487C21.909,27.816 21.464,28 21,28C20.536,28 20.091,27.816 19.763,27.487C19.434,27.159 19.25,26.714 19.25,26.25L19.25,24.95C19.224,23.715 19.529,22.496 20.134,21.419C20.738,20.342 21.62,19.446 22.687,18.825C23.334,18.469 23.851,17.917 24.165,17.249C24.48,16.581 24.575,15.831 24.437,15.106C24.301,14.415 23.961,13.781 23.463,13.283C22.964,12.786 22.328,12.449 21.637,12.315C21.133,12.221 20.614,12.24 20.117,12.37C19.621,12.499 19.159,12.736 18.764,13.064C18.369,13.391 18.052,13.802 17.833,14.266C17.615,14.73 17.501,15.237 17.5,15.75C17.5,16.214 17.316,16.659 16.987,16.987C16.659,17.316 16.214,17.5 15.75,17.5C15.286,17.5 14.841,17.316 14.513,16.987C14.184,16.659 14,16.214 14,15.75C14,14.515 14.327,13.303 14.948,12.235C15.568,11.168 16.46,10.284 17.532,9.672C18.605,9.06 19.82,8.743 21.054,8.753C22.289,8.762 23.499,9.098 24.562,9.726C25.625,10.355 26.502,11.253 27.106,12.33C27.71,13.407 28.018,14.624 27.999,15.859C27.981,17.093 27.636,18.301 27,19.359C26.363,20.417 25.459,21.288 24.378,21.884L24.378,21.886Z" style="fill:rgb(216,216,216);fill-rule:nonzero;"/>
    </g>
</svg>
