<?xml version="1.0" encoding="UTF-8" standalone="no"?>
<!DOCTYPE svg PUBLIC "-//W3C//DTD SVG 1.1//EN" "http://www.w3.org/Graphics/SVG/1.1/DTD/svg11.dtd">
<svg width="100%" height="100%" viewBox="0 0 100 100" version="1.1" xmlns="http://www.w3.org/2000/svg" xmlns:xlink="http://www.w3.org/1999/xlink" xml:space="preserve" xmlns:serif="http://www.serif.com/" style="fill-rule:evenodd;clip-rule:evenodd;stroke-linejoin:round;stroke-miterlimit:2;">
    <g transform="matrix(2.23001,0,0,2.23001,1.5907,3.2492)">
        <path d="M12.84,10.501L40.515,10.501C40.973,10.501 41.413,10.316 41.738,9.988C42.062,9.66 42.244,9.215 42.244,8.751C42.244,8.286 42.062,7.841 41.738,7.513C41.413,7.185 40.973,7.001 40.515,7.001L12.84,7.001C12.381,7.001 11.941,7.185 11.617,7.513C11.293,7.841 11.111,8.286 11.111,8.751C11.111,9.215 11.293,9.66 11.617,9.988C11.941,10.316 12.381,10.501 12.84,10.501Z" style="fill:rgb(216,216,216);fill-rule:nonzero;"/>
        <path d="M40.515,19.25L12.84,19.25C12.381,19.25 11.941,19.434 11.617,19.762C11.293,20.09 11.111,20.535 11.111,21C11.111,21.464 11.293,21.909 11.617,22.237C11.941,22.565 12.381,22.75 12.84,22.75L40.515,22.75C40.973,22.75 41.413,22.565 41.738,22.237C42.062,21.909 42.244,21.464 42.244,21C42.244,20.535 42.062,20.09 41.738,19.762C41.413,19.434 40.973,19.25 40.515,19.25Z" style="fill:rgb(216,216,216);fill-rule:nonzero;"/>
        <path d="M40.515,31.5L12.84,31.5C12.381,31.5 11.941,31.684 11.617,32.013C11.293,32.341 11.111,32.786 11.111,33.25C11.111,33.714 11.293,34.159 11.617,34.488C11.941,34.816 12.381,35 12.84,35L40.515,35C40.973,35 41.413,34.816 41.738,34.488C42.062,34.159 42.244,33.714 42.244,33.25C42.244,32.786 42.062,32.341 41.738,32.013C41.413,31.684 40.973,31.5 40.515,31.5Z" style="fill:rgb(216,216,216);fill-rule:nonzero;"/>
        <path d="M4.192,12.25C6.102,12.25 7.651,10.683 7.651,8.75C7.651,6.817 6.102,5.25 4.192,5.25C2.281,5.25 0.733,6.817 0.733,8.75C0.733,10.683 2.281,12.25 4.192,12.25Z" style="fill:rgb(216,216,216);fill-rule:nonzero;"/>
        <path d="M4.192,24.501C6.102,24.501 7.651,22.934 7.651,21.001C7.651,19.068 6.102,17.501 4.192,17.501C2.281,17.501 0.733,19.068 0.733,21.001C0.733,22.934 2.281,24.501 4.192,24.501Z" style="fill:rgb(216,216,216);fill-rule:nonzero;"/>
        <path d="M4.192,36.749C6.102,36.749 7.651,35.182 7.651,33.249C7.651,31.317 6.102,29.75 4.192,29.75C2.281,29.75 0.733,31.317 0.733,33.249C0.733,35.182 2.281,36.749 4.192,36.749Z" style="fill:rgb(216,216,216);fill-rule:nonzero;"/>
    </g>
</svg>
