<?xml version="1.0" encoding="UTF-8" standalone="no"?>
<!DOCTYPE svg PUBLIC "-//W3C//DTD SVG 1.1//EN" "http://www.w3.org/Graphics/SVG/1.1/DTD/svg11.dtd">
<svg width="100%" height="100%" viewBox="0 0 100 100" version="1.1" xmlns="http://www.w3.org/2000/svg" xmlns:xlink="http://www.w3.org/1999/xlink" xml:space="preserve" xmlns:serif="http://www.serif.com/" style="fill-rule:evenodd;clip-rule:evenodd;stroke-linejoin:round;stroke-miterlimit:2;">
    <g transform="matrix(2.3489,0,0,2.3489,0.460505,0.258055)">
        <path d="M39.349,19.207L21,30.218L2.651,19.207C2.254,18.968 1.777,18.897 1.327,19.01C0.876,19.122 0.489,19.409 0.25,19.807C0.012,20.205 -0.059,20.682 0.053,21.132C0.166,21.582 0.453,21.969 0.851,22.208L20.101,33.758C20.373,33.922 20.685,34.008 21.002,34.008C21.32,34.008 21.631,33.922 21.903,33.758L41.153,22.208C41.551,21.969 41.838,21.582 41.951,21.132C42.063,20.682 41.992,20.205 41.754,19.807C41.515,19.409 41.128,19.122 40.677,19.01C40.227,18.897 39.751,18.968 39.353,19.207L39.349,19.207Z" style="fill:rgb(216,216,216);fill-rule:nonzero;"/>
        <path d="M39.349,27.2L21,38.209L2.652,27.2C2.455,27.082 2.236,27.004 2.009,26.97C1.782,26.936 1.55,26.947 1.327,27.003C1.104,27.059 0.894,27.158 0.709,27.295C0.525,27.431 0.369,27.603 0.251,27.8C0.132,27.997 0.054,28.216 0.02,28.443C-0.014,28.67 -0.002,28.902 0.053,29.125C0.166,29.575 0.453,29.962 0.851,30.201L20.101,41.751C20.373,41.915 20.685,42.001 21.002,42.001C21.32,42.001 21.631,41.915 21.903,41.751L41.153,30.201C41.551,29.962 41.838,29.575 41.951,29.125C42.063,28.675 41.992,28.198 41.754,27.8C41.515,27.402 41.128,27.115 40.677,27.003C40.227,26.89 39.751,26.961 39.353,27.2L39.349,27.2Z" style="fill:rgb(216,216,216);fill-rule:nonzero;"/>
        <path d="M0.849,14.626L18.321,25.11C19.13,25.596 20.056,25.854 21,25.854C21.944,25.854 22.87,25.596 23.679,25.11L41.151,14.626C41.41,14.47 41.624,14.25 41.773,13.987C41.921,13.724 41.999,13.428 41.999,13.126C41.999,12.824 41.921,12.527 41.773,12.264C41.624,12.001 41.41,11.782 41.151,11.626L23.679,1.142C22.87,0.656 21.944,0.399 21,0.399C20.056,0.399 19.13,0.656 18.321,1.142L0.849,11.626C0.59,11.782 0.376,12.001 0.227,12.264C0.078,12.527 0,12.824 0,13.126C0,13.428 0.078,13.724 0.227,13.987C0.376,14.25 0.59,14.47 0.849,14.626Z" style="fill:rgb(216,216,216);fill-rule:nonzero;"/>
    </g>
</svg>
