<?xml version="1.0" encoding="UTF-8" standalone="no"?>
<!DOCTYPE svg PUBLIC "-//W3C//DTD SVG 1.1//EN" "http://www.w3.org/Graphics/SVG/1.1/DTD/svg11.dtd">
<svg width="100%" height="100%" viewBox="0 0 100 100" version="1.1" xmlns="http://www.w3.org/2000/svg" xmlns:xlink="http://www.w3.org/1999/xlink" xml:space="preserve" xmlns:serif="http://www.serif.com/" style="fill-rule:evenodd;clip-rule:evenodd;stroke-linejoin:round;stroke-miterlimit:2;">
    <g transform="matrix(5.00234,0,0,5.00234,0.0894138,-0.377323)">
        <path d="M10,0C8.022,0 6.089,0.586 4.444,1.685C2.8,2.784 1.518,4.346 0.761,6.173C0.004,8 -0.194,10.011 0.192,11.951C0.578,13.891 1.53,15.673 2.929,17.071C4.327,18.47 6.109,19.422 8.049,19.808C9.989,20.194 12,19.996 13.827,19.239C15.654,18.482 17.216,17.2 18.315,15.556C19.414,13.911 20,11.978 20,10C19.997,7.349 18.943,4.807 17.068,2.932C15.193,1.057 12.651,0.003 10,0ZM10,18.333C8.352,18.333 6.741,17.845 5.37,16.929C4,16.013 2.932,14.712 2.301,13.189C1.67,11.666 1.505,9.991 1.827,8.374C2.148,6.758 2.942,5.273 4.107,4.107C5.273,2.942 6.758,2.148 8.374,1.827C9.991,1.505 11.666,1.67 13.189,2.301C14.712,2.932 16.013,4 16.929,5.37C17.845,6.741 18.333,8.352 18.333,10C18.331,12.209 17.452,14.328 15.89,15.89C14.328,17.452 12.209,18.331 10,18.333Z" style="fill:white;fill-rule:nonzero;"/>
        <path d="M10.598,4.219C10.117,4.131 9.623,4.15 9.151,4.275C8.678,4.399 8.239,4.626 7.864,4.939C7.489,5.252 7.188,5.644 6.981,6.086C6.774,6.529 6.667,7.011 6.667,7.5C6.667,7.721 6.755,7.933 6.911,8.089C7.067,8.245 7.279,8.333 7.5,8.333C7.721,8.333 7.933,8.245 8.089,8.089C8.246,7.933 8.333,7.721 8.333,7.5C8.333,7.255 8.387,7.012 8.491,6.79C8.595,6.568 8.747,6.372 8.936,6.216C9.125,6.059 9.346,5.946 9.583,5.885C9.82,5.823 10.068,5.815 10.309,5.861C10.638,5.924 10.941,6.085 11.179,6.322C11.416,6.559 11.578,6.861 11.643,7.19C11.708,7.535 11.663,7.892 11.513,8.21C11.364,8.528 11.117,8.791 10.809,8.961C10.299,9.256 9.878,9.683 9.589,10.196C9.3,10.71 9.154,11.291 9.167,11.881L9.167,12.5C9.167,12.721 9.255,12.933 9.411,13.089C9.567,13.245 9.779,13.333 10,13.333C10.221,13.333 10.433,13.245 10.589,13.089C10.746,12.933 10.833,12.721 10.833,12.5L10.833,11.881C10.823,11.591 10.889,11.303 11.025,11.047C11.161,10.79 11.362,10.574 11.608,10.421C12.212,10.089 12.698,9.578 13,8.959C13.302,8.34 13.404,7.643 13.294,6.963C13.183,6.283 12.864,5.654 12.381,5.163C11.899,4.671 11.275,4.342 10.598,4.219Z" style="fill:white;fill-rule:nonzero;"/>
        <path d="M10.833,15C10.833,14.54 10.46,14.166 10,14.166C9.54,14.166 9.167,14.54 9.167,15C9.167,15.46 9.54,15.833 10,15.833C10.46,15.833 10.833,15.46 10.833,15Z" style="fill:white;fill-rule:nonzero;"/>
    </g>
</svg>
