<?xml version="1.0" encoding="UTF-8" standalone="no"?>
<!DOCTYPE svg PUBLIC "-//W3C//DTD SVG 1.1//EN" "http://www.w3.org/Graphics/SVG/1.1/DTD/svg11.dtd">
<svg width="100%" height="100%" viewBox="0 0 100 100" version="1.1" xmlns="http://www.w3.org/2000/svg" xmlns:xlink="http://www.w3.org/1999/xlink" xml:space="preserve" xmlns:serif="http://www.serif.com/" style="fill-rule:evenodd;clip-rule:evenodd;stroke-linejoin:round;stroke-miterlimit:2;">
    <g transform="matrix(2.35714,0,0,2.35714,0.712739,-0.00399498)">
        <path d="M36.75,7L31.325,7C30.488,2.929 26.906,0.005 22.75,0L19.25,0C15.094,0.005 11.512,2.929 10.675,7L5.25,7C4.283,7 3.5,7.783 3.5,8.75C3.5,9.716 4.283,10.5 5.25,10.5L7,10.5L7,33.25C7.006,38.08 10.92,41.994 15.75,42L26.25,42C31.08,41.994 34.994,38.08 35,33.25L35,10.5L36.75,10.5C37.717,10.5 38.5,9.717 38.5,8.75C38.5,7.784 37.717,7 36.75,7ZM19.25,29.75C19.25,30.717 18.467,31.5 17.5,31.5C16.534,31.5 15.75,30.717 15.75,29.75L15.75,19.25C15.75,18.284 16.534,17.5 17.5,17.5C18.466,17.5 19.25,18.284 19.25,19.25L19.25,29.75L19.25,29.75ZM26.25,29.75C26.25,30.717 25.467,31.5 24.5,31.5C23.534,31.5 22.75,30.717 22.75,29.75L22.75,19.25C22.75,18.284 23.534,17.5 24.5,17.5C25.467,17.5 26.25,18.284 26.25,19.25L26.25,29.75ZM14.299,7C15.044,4.904 17.026,3.503 19.25,3.5L22.75,3.5C24.974,3.503 26.956,4.904 27.701,7L14.299,7Z" style="fill:rgb(216,216,216);fill-rule:nonzero;"/>
    </g>
</svg>
